<svg width="103" height="70" viewBox="0 0 103 70" fill="none" xmlns="http://www.w3.org/2000/svg">
<g clip-path="url(#clip0_36_3688)">
<path d="M18.8058 16.2056H0.0651245V22.194H21.7575C20.2057 19.1048 19.7174 17.9401 18.8058 16.2056Z" fill="white"/>
<path d="M16.3533 36.8039C17.2215 36.8039 18.936 36.7786 18.936 36.7786C18.936 36.7786 20.7265 33.145 21.7574 31.0054H0V45.9828H5.21962V36.7912H9.74473L15.2031 45.9828H21.8117L16.3533 36.7912V36.8039Z" fill="white"/>
<path d="M54.0518 16.2056V22.194H32.5765C34.3127 18.9149 34.367 18.5224 35.5607 16.2056H54.0518Z" fill="white"/>
<path d="M54.0735 31.0565V45.9452H32.5656C32.5656 45.9452 32.5982 41.3115 32.5982 39.6023V30.9932H38.0348V39.9568H49.2662V36.7664H43.4715V31.0438H54.0952L54.0735 31.0565Z" fill="white"/>
<path d="M87.3336 31.0181V45.9955H65.8475V40.007H81.9078V36.7786H68.8642L68.4627 35.981C68.4627 35.981 68.0829 35.196 67.7682 34.601C67.2148 33.5248 66.4986 32.0689 65.9777 31.0181H84.8269C85.6408 31.0181 87.3445 31.0181 87.3445 31.0181H87.3336Z" fill="white"/>
<path d="M68.7774 16.2056C67.2907 19.1934 67.3341 19.2694 65.8257 22.194H87.301V16.2056H68.7774Z" fill="white"/>
<path d="M97.5992 0L94.2678 3.88678H67.269V3.92476L56.9166 24.8526H0V28.3722H58.6203V28.3469L58.6637 28.3722L69.027 7.4064H94.2678L97.5992 11.2932L102.439 5.64659L97.5992 0ZM94.8972 5.64659L97.5992 2.49412L100.301 5.64659L97.5992 8.79906L94.8972 5.64659Z" fill="white"/>
<path d="M0.141086 54.7949H4.19958C4.94834 54.7949 5.55603 55.5039 5.55603 56.3774V57.403C5.55603 58.2765 4.94834 58.9855 4.19958 58.9855L5.56688 61.2771H3.91744L2.55014 58.9855H1.42157V61.2771H0.0651245V57.4789H4.19958V56.2762H0.141086V54.7822V54.7949Z" fill="white"/>
<path d="M11.8825 61.2771C11.1338 61.2771 10.5261 60.5682 10.5261 59.6946V56.3902C10.5261 55.5166 11.1338 54.8076 11.8825 54.8076H15.6697V56.3016H11.8825V57.3017H15.5938V58.7957H11.8825V59.7959H15.7457V61.2898H11.8825V61.2771Z" fill="white"/>
<path d="M22.6473 54.7949H24.1014L22.7558 58.8716H23.9929L23.7541 58.1373L24.4812 55.9344L26.25 61.2771H24.7959L24.4921 60.3656H22.2675L21.9636 61.2771H20.5095L22.6473 54.7949Z" fill="white"/>
<path d="M32.4463 54.7949V59.7832H36.2335V61.2771H32.4463C31.6975 61.2771 31.0898 60.5681 31.0898 59.6945V54.7949H32.4463Z" fill="white"/>
<path d="M52.5977 57.5676V59.7073C52.5977 60.5808 51.99 61.2898 51.2412 61.2898H48.4307C47.6819 61.2898 47.0742 60.5808 47.0742 59.7073V56.4029C47.0742 55.5293 47.6819 54.8203 48.4307 54.8203H52.4458V56.3143H48.4307V59.7959H51.2412V59.0616H49.798V57.5676H52.6085H52.5977Z" fill="white"/>
<path d="M57.7847 54.8076H61.8541C62.6029 54.8076 63.2105 55.5166 63.2105 56.3901V57.4156C63.2105 58.2892 62.6029 58.9982 61.8541 58.9982L63.2214 61.2898H61.572L60.2047 58.9982H59.0761V61.2898H57.7196V57.4916H61.8649V56.2889H57.7956V54.7949L57.7847 54.8076Z" fill="white"/>
<path d="M68.1697 56.3902C68.1697 55.5166 68.7774 54.8076 69.5262 54.8076H72.3367C73.0855 54.8076 73.6932 55.5166 73.6932 56.3902V59.6946C73.6932 60.5682 73.0855 61.2771 72.3367 61.2771H69.5262C68.7774 61.2771 68.1697 60.5682 68.1697 59.6946V56.3902ZM69.5262 59.7832H72.3367V56.3016H69.5262V59.7832Z" fill="white"/>
<path d="M80.3018 60.1504L78.533 54.8076H79.9871L81.0289 57.9474L80.3018 60.1504ZM83.6766 56.6181L84.1216 57.9601L83.3945 60.163L82.9604 58.821L82.1357 61.3025H80.6816L82.2225 56.6181H83.6766ZM85.2176 61.3025H83.7635L85.9012 54.8203H87.3553L85.2176 61.3025Z" fill="white"/>
<path d="M1.31303 67.9995C0.716196 67.9995 0.227875 67.4298 0.227875 66.7335V66.0751C0.227875 65.3788 0.716196 64.8091 1.31303 64.8091H4.52511V66.0118H1.31303V66.8094H3.43995C4.03678 66.8094 4.52511 67.3792 4.52511 68.0755V68.7338C4.52511 69.4302 4.03678 69.9999 3.43995 69.9999H0.227875V68.7971H3.43995V67.9995H1.31303Z" fill="white"/>
<path d="M11.5895 66.0751C11.5895 65.3788 12.0778 64.8091 12.6747 64.8091H14.9209C15.5178 64.8091 16.0061 65.3788 16.0061 66.0751V68.7212C16.0061 69.4175 15.5178 69.9872 14.9209 69.9872H12.6747C12.0778 69.9872 11.5895 69.4175 11.5895 68.7212V66.0751ZM12.6747 68.7971H14.9209V66.0118H12.6747V68.7971Z" fill="white"/>
<path d="M23.3635 66.0751C23.3635 65.3788 23.8518 64.8091 24.4486 64.8091H27.4762V66.0118H24.4486V66.8094H27.422V68.0122H24.4486V70.0126H23.3635V66.0878V66.0751Z" fill="white"/>
<path d="M34.8336 66.0878V64.8218H36.5156H37.6008H39.2828V66.0878H37.6008V69.9999H36.5156V66.0878H34.8336Z" fill="white"/>
<path d="M46.9874 69.0883L45.5767 64.8091H46.7378L47.5734 67.3285L46.9874 69.0883ZM49.6894 66.2524L50.0475 67.3285L49.4616 69.0883L49.1143 68.0122L48.4524 69.9999H47.2912L48.5283 66.2524H49.6894ZM50.9265 69.9999H49.7654L51.48 64.8091H52.6411L50.9265 69.9999Z" fill="white"/>
<path d="M60.4542 64.8091H61.6154L60.541 68.0755H61.5285L61.3332 67.4931L61.9083 65.7333L63.3191 70.0126H62.1579L61.9192 69.2782H60.1395L59.9008 70.0126H58.7397L60.4542 64.8217V64.8091Z" fill="white"/>
<path d="M70.5788 64.809H73.8342C74.4311 64.809 74.9194 65.3788 74.9194 66.0751V66.898C74.9194 67.5944 74.4311 68.1641 73.8342 68.1641L74.9303 69.9999H73.6064L72.5103 68.1641H71.6097V69.9999H70.5245V66.9613H73.8342V65.9991H70.5788V64.7964V64.809Z" fill="white"/>
<path d="M83.6007 69.9872C83.0038 69.9872 82.5155 69.4175 82.5155 68.7212V66.0751C82.5155 65.3788 83.0038 64.8091 83.6007 64.8091H86.6283V66.0118H83.6007V66.8094H86.574V68.0122H83.6007V68.8098H86.6934V70.0126H83.6007V69.9872Z" fill="white"/>
</g>
<defs>
<clipPath id="clip0_36_3688">
<rect width="102.439" height="70" fill="white"/>
</clipPath>
</defs>
</svg>
